<?xml version="1.0" standalone="no"?>
<!DOCTYPE svg PUBLIC "-//W3C//DTD SVG 20010904//EN"
 "http://www.w3.org/TR/2001/REC-SVG-20010904/DTD/svg10.dtd">
<svg version="1.0" xmlns="http://www.w3.org/2000/svg"
 width="512.000000pt" height="512.000000pt" viewBox="0 0 512.000000 512.000000"
 preserveAspectRatio="xMidYMid meet">
<metadata>
Created by potrace 1.14, written by Peter Selinger 2001-2017
</metadata>
<g transform="translate(0.000000,512.000000) scale(0.100000,-0.100000)"
fill="#000000" stroke="none">
<path d="M798 4978 c-3 -11 -2 -3484 1 -3511 1 -11 505 5 559 17 12 3 22 0 22
-5 0 -6 7 -6 18 -1 14 8 427 10 427 2 0 -1 18 -4 40 -5 54 -5 102 -12 147 -23
20 -5 39 -7 42 -4 4 3 6 0 6 -7 0 -8 7 -11 15 -7 8 3 15 0 15 -6 0 -6 3 -9 6
-5 4 3 19 0 34 -8 15 -8 30 -11 34 -8 3 4 6 1 6 -5 0 -7 3 -11 8 -10 10 3 111
-50 141 -73 13 -10 27 -17 31 -14 5 3 9 754 9 1670 l2 1665 -88 64 c-144 107
-318 184 -499 220 -76 15 -92 18 -179 30 -103 15 -278 24 -566 31 -177 4 -228
2 -231 -7z"/>
<path d="M3877 4984 c-1 -1 -58 -4 -127 -8 -69 -4 -136 -9 -150 -10 -106 -15
-180 -27 -247 -40 -174 -34 -371 -122 -519 -231 l-75 -56 3 -1664 c2 -950 7
-1667 12 -1672 5 -4 11 -2 13 5 3 6 11 12 19 12 8 0 14 4 14 8 0 7 62 43 80
47 3 0 20 9 38 18 17 10 32 14 32 11 0 -4 8 0 18 9 10 10 22 14 25 11 4 -4 12
-2 19 4 13 10 86 28 101 24 4 -1 7 2 7 6 0 4 8 8 18 9 9 0 44 3 77 7 33 4 103
8 155 9 52 1 98 7 102 12 5 7 8 7 8 0 0 -6 39 -10 98 -9 53 0 104 -3 113 -8 9
-4 19 -4 23 -1 8 9 46 12 46 4 0 -3 44 -6 98 -6 53 0 101 -2 106 -4 4 -2 61
-5 126 -6 64 -1 121 -5 126 -8 6 -3 16 -2 24 3 8 5 21 5 31 -1 12 -6 20 -5 25
3 8 13 12 3505 4 3517 -4 6 -435 10 -443 5z"/>
<path d="M210 4403 c0 -4 -16 -9 -35 -10 -38 -2 -93 -35 -126 -76 -12 -16 -24
-52 -29 -85 -10 -72 -6 -3555 4 -3602 14 -63 52 -111 103 -131 41 -16 146 -18
982 -24 753 -5 754 -5 790 -27 20 -12 117 -76 216 -141 99 -66 209 -134 245
-151 63 -30 70 -31 200 -31 131 0 137 1 203 32 60 29 274 165 287 183 3 4 21
15 40 25 19 10 37 21 40 25 3 4 36 25 75 46 l69 38 791 3 c797 2 883 4 921 19
35 15 82 60 103 100 l21 39 0 1780 c-1 1063 -5 1800 -11 1829 -19 100 -81 146
-204 149 -41 1 -75 4 -75 7 0 3 -9 6 -20 6 -11 0 -20 -3 -20 -6 0 -3 -12 -6
-27 -6 l-28 1 -2 -1235 c-1 -679 -3 -1274 -3 -1322 -1 -48 1 -92 5 -98 3 -5 3
-10 -2 -10 -4 0 -8 -75 -8 -168 1 -228 -20 -332 -79 -396 -26 -28 -83 -66
-101 -67 -2 0 -22 -5 -42 -12 -21 -7 -69 -13 -108 -12 -38 0 -73 -4 -77 -10
-5 -6 -8 -5 -8 3 0 7 -4 11 -9 7 -5 -3 -184 -7 -398 -10 -448 -6 -688 -12
-720 -20 -13 -3 -31 -7 -40 -9 -51 -12 -152 -69 -173 -98 -87 -116 -206 -223
-261 -233 -11 -2 -24 -7 -29 -10 -27 -16 -158 -27 -166 -13 -3 4 -16 8 -30 8
-24 0 -73 20 -123 51 -33 20 -68 54 -131 129 -30 36 -63 71 -72 78 -9 7 -23
19 -31 27 -8 8 -17 11 -21 8 -3 -4 -6 -2 -6 4 0 6 -15 17 -32 24 -31 13 -44
17 -78 23 -8 2 -22 6 -31 10 -9 4 -100 8 -202 9 -103 1 -187 6 -187 10 0 4 -8
3 -18 -2 -13 -7 -23 -6 -30 1 -9 9 -12 9 -12 -2 0 -10 -3 -11 -11 -3 -7 7 -21
8 -39 3 -16 -5 -31 -6 -34 -3 -9 10 -160 9 -173 0 -7 -5 -13 -6 -13 -1 0 5
-82 10 -183 11 -341 3 -410 8 -474 38 -129 59 -164 146 -167 420 0 61 -5 113
-11 117 -7 5 -6 8 1 8 11 0 13 108 1 127 -3 5 -4 13 0 16 7 8 10 237 3 237 -3
0 -4 89 -3 198 1 108 3 217 3 242 0 25 -1 468 -2 985 l-3 940 -80 0 c-44 1
-86 4 -93 9 -6 4 -12 4 -12 -1z"/>
</g>
</svg>
